<svg xmlns="http://www.w3.org/2000/svg" viewBox="0 0 20.01 16.15"><defs><style>.cls-1{fill:#2985c4;}</style></defs><title>Asset 42</title><g id="Capa_2" data-name="Capa 2"><g id="Isolation_Mode" data-name="Isolation Mode"><path d="M1,9.07H16.59l-5.36,5.37a1,1,0,0,0,0,1.42,1,1,0,0,0,1.41,0l7.07-7.08h0l.13-.15a.3.3,0,0,0,0-.08.41.41,0,0,0,.05-.09.45.45,0,0,0,0-.11l0-.08a1.23,1.23,0,0,0,0-.2h0a1.23,1.23,0,0,0,0-.19l0-.09,0-.1a.93.93,0,0,0-.05-.1l0-.07a.64.64,0,0,0-.13-.15L12.64.29a1,1,0,0,0-1.41,0,1,1,0,0,0,0,1.42l5.36,5.36H1a1,1,0,0,0,0,2Z"/></g></g></svg>