<svg xmlns="http://www.w3.org/2000/svg" viewBox="0 0 495.63 448.61"><defs><style>.cls-1{fill:#fff;}</style></defs><title>data-user</title><g id="Layer_2" data-name="Layer 2"><g id="Layer_1-2" data-name="Layer 1"><path class="cls-1" d="M209.76,365.09c0-20.66-.07-41.32.07-62,0-3.18-.58-5.08-4.06-5.29a15.77,15.77,0,0,1-3.39-.81c-14.76-4.35-15.73-6.08-16.74-21.26-1.16-17.58-3.45-35.09-4.5-52.68s-3.6-35.45-1.49-53.31c.47-4,2-6.19,6-7.37,11.64-3.42,23.2-7.11,34.72-10.92,3-1,4.7-.32,6.71,2.09,6.29,7.54,13,14.73,19.31,22.25,2,2.42,3.1,2.68,5.19.13,6.25-7.58,12.88-14.84,19-22.49,2.27-2.83,4.24-3.34,7.6-2.15,11,3.89,22,7.52,33.11,11.06,3.67,1.17,5.16,3.21,5.67,7.09,1.8,13.69.3,27.29-.67,40.87-1.49,20.74-3.64,41.42-5.48,62.13-.41,4.64-.84,9.29-1,13.94-.07,2.33-1.18,3.61-2.92,4.82a40.89,40.89,0,0,1-16.64,6.39c-3.73.64-4.64,2.3-4.62,5.93.13,40.48.08,81,.08,121.44,0,6.65-1.19,12.89-5.84,18a15.62,15.62,0,0,1-12.3,5.56c-11.82-.07-23.65.07-35.48,0-13.51-.06-22.27-8.84-22.34-22.55C209.69,405.73,209.76,385.41,209.76,365.09Zm16-8.27q0,33.49,0,67c0,7.27,1,8.31,8.41,8.34,10.17,0,20.33.05,30.5,0,6.49,0,9.07-2.63,9.09-9.09,0-10.67,0-21.33,0-32,0-34,0-68-.09-102,0-3.27.74-4.69,4.24-5.06,4.44-.46,8.78-1.77,13.18-2.64,3.18-.63,4.56-2.17,4.81-5.71.93-13.28,2.48-26.5,3.49-39.77,1.42-18.59,3.22-37.15,3.35-55.82,0-3-.76-4.52-3.77-5.34-5.61-1.54-11.13-3.4-16.63-5.3-2.64-.92-4.34-.65-6.34,1.74-8,9.57-16.49,18.77-24.54,28.33-2.38,2.83-3.67,2.68-5.94,0-8.06-9.54-16.37-18.87-24.46-28.38-1.73-2-3.23-2.78-5.92-1.79a151.76,151.76,0,0,1-15.69,4.94c-3.67.92-5.11,2.56-4.94,6.47.37,8.48.6,17,1.07,25.45,1.31,23.43,4,46.74,6,70.11.23,2.64,1.25,3.92,3.71,4.42,5.37,1.09,10.69,2.53,16.1,3.23,3.62.47,4.51,1.84,4.49,5.38C225.66,311.83,225.75,334.32,225.75,356.82Z"/><path class="cls-1" d="M365.51,114.38c2.65-6.52,6.44-12,14.74-13.53,5.83-1,11.44-3.41,17.09-5.34,2.8-1,4.68-.68,6.74,1.88,6,7.39,12.45,14.35,18.42,21.72,2.43,3,3.7,3.6,6.4.15,6.05-7.73,12.63-15,18.89-22.62,1.58-1.9,2.9-2.46,5.47-1.61,11.66,3.86,23.36,7.64,35.19,10.93,4.6,1.27,5.88,3.93,6.37,8.12,1.63,14,.46,28-.46,41.92-1.62,24.75-3.77,49.47-5.55,74.22a6.72,6.72,0,0,1-3.48,5.59A34.8,34.8,0,0,1,471,241.32c-4.95.63-5.81,3-5.79,7.53.19,39.32.11,78.64.1,118,0,3.83-.08,7.65-1.37,11.34-3.21,9.15-10.36,14.41-19.88,14.46q-17.5.09-35,.06c-14.25-.05-24.17-10-24.19-24.18,0-29,0-58-.07-87,0-3.1.56-4.73,4-5.56,3.95-1,7.65-2.95,12.08-4.75v10.65q0,42.74,0,85.47c0,7.12,2.32,9.42,9.63,9.44q15.5,0,31,0c6.87,0,8-1.11,8-8.24.06-17.16,0-34.32,0-51.48,0-27.83,0-55.65-.12-83.48,0-3,.75-4.31,3.91-4.79,5.73-.87,11.39-2.28,17.07-3.49,1.88-.4,3.2-1.07,3.39-3.49,1.93-24.56,4.05-49.11,6-73.67.57-7.3.4-14.66,1.1-21.94.47-4.83-1.46-6.79-5.88-7.79a82.35,82.35,0,0,1-13.78-4.27c-3.67-1.55-5.65-.41-8,2.35-7.83,9.3-16,18.3-23.83,27.62-2.29,2.73-3.47,2.41-5.57-.06-8.1-9.52-16.45-18.81-24.53-28.34-1.89-2.23-3.62-3.17-6.35-1.86-1,.5-2.25.62-3.3,1.1C381.48,118.57,373.4,119.41,365.51,114.38Z"/><path class="cls-1" d="M220.64,142.05c-10.47,6.87-20.06,3.17-29.58-.47-3.22-1.23-5.23-.69-7.54,2.09-7.66,9.22-15.93,18-23.47,27.26-3.14,3.87-4.58,2.9-7.21-.24-7.7-9.19-15.76-18.08-23.47-27.25-2-2.37-3.68-3.13-6.69-2-5.44,2-11,3.72-16.61,5.28-2.69.75-3.58,2-3.58,4.84,0,17.18,1.43,34.27,2.68,51.37,1.08,14.78,2.61,29.52,3.59,44.3.26,3.9,1.71,5.62,5.39,6.23,5.07.83,10.08,2.14,15.17,2.85,3.42.47,4.55,1.71,4.54,5.36-.16,44.48-.1,89-.1,133.45a28.48,28.48,0,0,0,.15,5c.49,2.69,1.82,4.36,5.05,4.32,11.83-.14,23.66,0,35.49-.08,4.9,0,7.29-3,7.3-8.61q0-47.73,0-95.46v-4a63.31,63.31,0,0,0,13.71,6.43c1.93.57,2.36,1.75,2.36,3.67-.07,30.82.07,61.64-.13,92.46-.07,11-10.71,21.31-21.76,21.48q-19.24.29-38.49,0c-11-.15-19.51-9.84-19.63-22.31-.17-18.49,0-37,0-55.48,0-22.66-.06-45.31.07-68,0-3.19-.64-5.08-4.13-5.2a12,12,0,0,1-2.88-.75c-15.29-4.42-16.06-5.72-17.09-21.28C92.1,222.91,90,198.52,88.3,174.11c-.79-11.29-1.26-22.61.33-33.91.49-3.51,2-5.48,5.62-6.51q17.7-5.08,35.22-10.81c3-1,4.7-.61,6.71,1.87,6.29,7.76,13,15.19,19.27,22.95,2.1,2.58,3.19,2.82,5.38.11,6.16-7.66,12.69-15,18.88-22.64,1.71-2.1,3.17-2.7,5.81-1.82,8.51,2.81,17.06,5.54,25.7,7.91C217.12,132.88,216.63,139.19,220.64,142.05Z"/><path class="cls-1" d="M93.75,271c4.83,1.8,9.23,3.75,13.81,5,3.06.86,2.16,2.94,2.16,4.71q.09,36.73,0,73.49c0,5,0,10,0,15a22.77,22.77,0,0,1-23,23.09h-34c-13.42,0-22.95-9.38-23-22.86,0-40.16-.1-80.32.09-120.48,0-4.82-.49-7.95-6.14-8.18-2.08-.08-4.16-1.11-6.18-1.86C8,235.42,7.32,234.05,6.6,224,5,201,2.88,178.15,1.27,155.23.32,141.61-.72,128,.68,114.3c.46-4.41,1.84-7.14,6.67-8.45C18.87,102.7,30.25,99,41.58,95.22c3.12-1,4.72-.35,6.67,2,6.08,7.51,12.54,14.71,18.59,22.24,2.21,2.75,3.37,3.13,5.78.16,6.19-7.64,12.82-14.91,19.09-22.48,1.94-2.35,3.57-3.23,6.7-2A104.84,104.84,0,0,0,115,100.31c7.09,1.42,11.72,5.14,14.7,11.66,1,2.28.44,2.46-1.35,3.39-8.29,4.35-16.11,1.65-23.84-1.41-3.71-1.47-6-1.08-8.73,2.23-7.59,9.29-15.82,18-23.46,27.29-2.62,3.16-3.85,2.55-6.15-.17-7.83-9.3-16-18.33-23.82-27.63-2.08-2.47-3.87-3.43-7.09-2.22-5.27,2-10.68,3.65-16.13,5.12-3.17.85-4,2.52-4,5.67.24,18,1.68,35.94,3,53.88,1.06,14.11,2.53,28.19,3.48,42.31.22,3.34,1.43,4.73,4.48,5.31,5.22,1,10.37,2.42,15.62,3.08,3.52.45,4,2,4,5.12-.12,34.83-.08,69.66-.08,104.49,0,10.16,0,20.33,0,30.49,0,6.45,1.48,7.85,8,7.86q15.74,0,31.49,0c6.64,0,8.45-1.87,8.45-8.69q0-46.49,0-93Z"/><path class="cls-1" d="M275.09,142c1.89-6.88,6.88-9.81,13.44-11.47,7.55-1.91,14.94-4.49,22.3-7,2.8-1,4.44-.44,6.29,1.83,6.3,7.75,12.89,15.27,19.22,23,1.74,2.13,2.64,2.16,4.37,0,6.08-7.71,12.45-15.2,18.54-22.91,1.86-2.35,3.39-3.27,6.61-2.2,12,4,24.05,7.6,36.14,11.17,3.2.94,4.53,2.76,5,5.94,1.63,11.63,1.18,23.3.37,34.91-1.9,27.41-4.3,54.77-6.3,82.17a7.25,7.25,0,0,1-3.81,6.39,40.47,40.47,0,0,1-14.87,5.48c-3.81.58-4.71,2.09-4.7,5.78.14,40.31.07,80.63.11,121,0,4.9-.56,9.64-3,14-3.79,6.77-9.31,10.57-17.36,10.47-11.66-.13-23.33,0-35,0-14.09,0-24.68-10.5-24.68-24.47,0-29.32.07-58.64-.12-88,0-3.55,1-5,4.35-5.64a27.48,27.48,0,0,0,11.25-5.12c1,1.63.49,3.3.49,4.85q.06,46.23,0,92.46c0,6.8,2.75,9.57,9.69,9.6,10.33,0,20.66,0,31,0,6.91,0,7.3-.4,7.31-7.41,0-44.65.06-89.3-.11-133.95,0-4.32.48-6.61,5.55-6.82a69.49,69.49,0,0,0,16.6-3.24c1.73-.51,2.85-.86,3-3.08,2.73-32.17,6.41-64.27,7.07-96.61.09-4.17-1.28-5.84-5.14-6.72A62.68,62.68,0,0,1,376,142.2c-4.88-2.31-7.56-.64-10.63,3.22-7.15,9-14.95,17.46-22.17,26.39-2.61,3.23-3.83,2.64-6.19-.18-7.92-9.44-16.2-18.58-24.18-28-1.9-2.24-3.68-3-6.4-1.82-1.51.67-3.26.82-4.72,1.55C292.59,147.94,283.8,146.57,275.09,142Z"/><path class="cls-1" d="M459.79,38.3C458.5,52.9,455.48,70,444,84.24c-10.11,12.6-24.35,12.9-35.56,1.13C398.35,74.76,394.4,61.53,391.81,47.7a57.83,57.83,0,0,1-.3-22.29c3-14.67,10.35-21.77,25.11-24.35a42.21,42.21,0,0,1,26.22,3.49C455.64,10.72,460,21.81,459.79,38.3ZM424.58,16.38c-13.95,0-18.12,4.16-18.12,18.14a54.44,54.44,0,0,0,1.4,13.35c2.22,8.84,4.25,17.79,10.91,24.7,5.18,5.38,9,5.25,13.41-.6C440.25,61.35,443,49,443.58,36,444.19,22.41,438.09,16.4,424.58,16.38Z"/><path class="cls-1" d="M281.9,91.48c-1.33,17.22-4.35,33.93-15.3,48.1-10.57,13.66-25.68,14.26-36.77,1C215,122.77,210.4,101.93,214,79.41c2-13,11-20.29,26.2-22.59,15-2.26,34.58,3.33,40.18,21.8A44.25,44.25,0,0,1,281.9,91.48ZM246.18,72.41c-1,0-2,0-3,0-10.28.51-14.31,4.6-14.58,14.85a61.13,61.13,0,0,0,1.15,15.85c2.18,9.22,4.34,18.48,11.19,25.66,4.87,5.11,8.77,4.84,13.08-.71,8.21-10.57,10.87-23,11.54-35.91C266.29,78.36,260.13,72.42,246.18,72.41Z"/><path class="cls-1" d="M123.46,67.44c-1.29-31.91,21.88-41.17,41.07-38.67,17.52,2.28,25.88,10.19,27.4,28.06,1.76,20.62-2.83,40-17,56-11.29,12.71-25.53,12.25-36.06-1C127.68,97.88,124.58,81.15,123.46,67.44Zm53.27-2.27c.13-14.75-3-19.4-12.85-20.56a41.92,41.92,0,0,0-9.95,0c-8.06,1-13.38,5.44-14,12.56-1.28,15.14,1.62,29.47,10.49,42.1,4.91,7,8.62,7.16,14.26.68C173.94,89.35,175.49,76.1,176.73,65.17Z"/><path class="cls-1" d="M36.65,37.46c.11-14.21,3.14-25.53,14.86-31.92C64.43-1.5,78.15-2,91.18,5c12.1,6.55,14.35,18.65,14.08,31A82.74,82.74,0,0,1,95.19,74.8c-4.9,8.83-11.18,16.62-22,18.73-8.23,1.59-14.57-1.62-19.91-7.63C43.54,75,40.12,61.51,37.71,47.65A53.59,53.59,0,0,1,36.65,37.46Zm15.57-.63c1.27,12.92,3.63,24.72,11.23,34.78,4.8,6.36,8.71,6.91,13.6.78,11.08-13.88,14.09-30,11.39-47.32A8.45,8.45,0,0,0,83,18.37a29.33,29.33,0,0,0-23.24.44c-3.91,1.75-6,5.23-6.79,9.31A76,76,0,0,0,52.22,36.83Z"/><path class="cls-1" d="M373.15,63.68c-1.29,16.86-4.37,33.22-14.86,47.2-10.92,14.54-26,15.15-37.64,1.05-14.49-17.5-19.15-38.12-15.57-60.21,2.59-15.95,15.5-24,34.37-23.31,17.13.65,29.56,10.15,32.76,25.26C372.89,56.89,372.85,60.27,373.15,63.68Zm-16.42,2.77c.1-14.74-4.27-20.6-14.5-21.86a37.6,37.6,0,0,0-12.89.59c-5.79,1.31-8.72,4.86-9.7,10.56a43.57,43.57,0,0,0,.18,14.9c1.84,10.66,3.88,21.33,11.59,29.69,5.3,5.75,9.12,5.63,13.87-.38C353.7,89.27,355.88,76.6,356.73,66.45Z"/></g></g></svg>