<svg xmlns="http://www.w3.org/2000/svg" viewBox="0 0 358.46 462.97"><defs><style>.cls-1{fill:#fff;}</style></defs><title>data-client</title><g id="Layer_2" data-name="Layer 2"><g id="Layer_1-2" data-name="Layer 1"><path class="cls-1" d="M229.07,342.28c-4.39.14-8.13-1.66-11.71-3.83-5.69-3.44-11.27-7.08-17-10.44-14.17-8.28-28.39-8.25-42.51.13-5.72,3.39-11.28,7-17,10.42-12.47,7.36-23.62,3.69-29.2-9.58-2.63-6.27-5-12.65-7.77-18.87-6.92-15.6-19-23.89-36-24.91-5.82-.34-11.63-.75-17.45-1.08-13.87-.8-21.69-11.13-18.56-24.71,1.35-5.82,3-11.56,4.43-17.37,4.07-17.06,0-31.58-13.61-43.08-4.83-4.09-9.71-8.12-14.5-12.26-10.73-9.28-10.9-20.8-.32-30.36,5.19-4.69,10.73-9,16-13.62,12-10.66,16.16-24,12.92-39.62-1.42-6.83-3.34-13.55-4.93-20.34C28.61,69.26,36.47,59,50.37,58.17c8-.48,16-.62,23.86-2,13.66-2.43,23.55-10.38,29.3-23.07,2.94-6.5,5.32-13.25,8.12-19.81,5.59-13.1,16.53-16.84,28.83-9.77,6.05,3.49,11.79,7.49,17.84,11,13.83,8,27.82,8,41.67.06,5.92-3.38,11.57-7.22,17.42-10.71C230-3.66,241.2,0,246.94,13.53c2.54,6,4.88,12,7.45,17.94,6.43,14.84,17.52,23.46,33.8,24.94,7.13.64,14.28,1.1,21.42,1.64,11.84.88,19.69,11,17.26,22.58-1.6,7.64-3.82,15.15-5.33,22.8-3.06,15.48,1.39,28.6,13.21,39.09,4.86,4.3,9.92,8.38,14.9,12.56,11.58,9.7,11.77,21.36.4,31.34-4.88,4.28-9.94,8.36-14.84,12.63-13.09,11.38-17.13,25.62-13.14,42.31,1.47,6.14,3.12,12.23,4.55,18.38,3.09,13.3-4.54,23.4-18.26,24.37-8.13.58-16.38.61-24.35,2.09-13.79,2.57-23.78,10.59-29.39,23.64-3,7-5.74,14.16-8.85,21.13C242.58,338.12,237.05,342.09,229.07,342.28Zm-50-36c10.43.38,20.53,2.49,29.6,8.49,5.13,3.39,10.46,6.48,15.69,9.71,5.46,3.38,5.84,3.28,8.21-2.45s4.62-11.75,7.26-17.47c9.85-21.38,26.33-33.2,50.08-34.43,5.65-.3,11.3-.81,16.95-1.08,4.29-.21,5.43-2.22,4.34-6.24-1.69-6.25-3.07-12.58-4.69-18.85-4.37-17-.28-32.25,9.28-46.37,6.18-9.13,15.65-14.85,23.67-22.06,4.29-3.86,4.42-4-.07-7.85-5.18-4.45-10.55-8.69-15.6-13.28-14.55-13.23-21-29.73-18.32-49.24,1.14-8.35,3.75-16.5,5.68-24.74,1.12-4.8.25-5.91-4.74-6.22-6.15-.38-12.31-.7-18.45-1.18-17.68-1.38-31.52-9.71-42.1-23.7-6.51-8.63-9.06-19.14-13.35-28.83-2.31-5.21-3.51-5.67-8.55-2.61-4.83,2.94-9.58,6-14.44,8.9-20.55,12.16-41.12,12.76-61.65-.09-5.08-3.18-10.29-6.14-15.23-9.51-3.55-2.42-5.13-1.4-6.52,2.3-2.58,6.83-5.33,13.61-8.35,20.25C110.22,56.4,97.24,66.78,79.61,71.23c-9.24,2.34-18.87,1.64-28.3,2.65-3.92.42-5.35,1.66-4.16,5.72,1.6,5.41,2.75,11,4.12,16.43,6.08,24.18-.64,44.24-19.46,60.39-4.55,3.9-9.06,7.86-13.78,11.56-2.89,2.28-2.81,4-.07,6.29,5.4,4.44,10.81,8.89,16,13.58,16.57,15,22.84,33.36,17.91,55.31-1.45,6.49-2.89,13-4.69,19.37-1.08,3.86-.25,5.66,3.92,5.89,6.65.38,13.3.92,19.93,1.55,22.35,2.13,37.9,13.92,47.39,33.94,3,6.29,5.47,12.83,7.88,19.36,1.36,3.69,3.15,4.16,6.31,2.13,5.6-3.6,11.31-7,16.95-10.54C158.53,309.25,168.41,306.78,179.09,306.26Z"/><path class="cls-1" d="M263.57,435.62V424.21q0-53,0-106c0-11.11,4.61-17.48,15.71-21.52V463c-8.17-4.32-15.93-8.41-23.68-12.53-23.21-12.38-46.45-24.7-69.58-37.22-3.26-1.77-5.75-1.23-8.78.31Q131.22,437,85.06,460.27c-5.65,2.86-5.64,2.84-5.67-3.24-.13-23.12-.38-46.23-.38-69.34,0-24.11.33-48.22.32-72.33,0-6.14-.18-12.27.27-18.43,9.73,2.72,15.74,10.37,15.74,19.74q0,56.74,0,113.49c0,6.65,0,6.55,6.2,3.38,25.2-12.88,50.46-25.63,75.62-38.59,3.33-1.72,5.87-1.67,9.19.14,23.86,12.93,47.84,25.63,71.79,38.38C259.76,434.3,261.2,435.53,263.57,435.62Z"/><path class="cls-1" d="M187.37,360.1c0,5.66,0,11.32,0,17,0,3.06-.32,6-4.2,6-3.63,0-4.11-2.82-4.12-5.63q-.06-17.48,0-35c0-2.77.41-5.59,4.2-5.48,3.64.1,4.11,2.67,4.09,5.59,0,5.82,0,11.65,0,17.47Z"/><path class="cls-1" d="M179,65.58c57.48-1,107.52,47.58,108.59,105.52,1.11,60-46.54,109.79-106.21,110.88-59.91,1.09-109.75-46.89-110.6-106.49C69.89,115.31,117.76,66.69,179,65.58ZM279.59,174.2c0-55.66-45-100.83-100.47-100.74-55,.1-100.44,45.6-100.42,100.55S124,274.07,179.39,274.06,279.57,229.25,279.59,174.2Z"/><path class="cls-1" d="M151.68,222c-4.88.15-7.47-3.36-6.74-8.69.54-3.95,1.41-7.86,1.78-11.82A32,32,0,0,0,136,173.75a54.25,54.25,0,0,1-7.22-7.56c-3.41-4.63-2-8.62,3.54-10.33a46.75,46.75,0,0,1,7.79-1.57c13.64-1.74,23.4-8.75,29.29-21.19,1.42-3,2.75-6.09,5.07-8.55,3.48-3.69,7.69-3.41,10.41.89a85,85,0,0,1,4.86,9.27c5.45,11.51,14.72,17.6,27.1,19.45a61.41,61.41,0,0,1,9.26,1.83c5.62,1.75,6.85,6.16,3.17,10.8a24.91,24.91,0,0,1-3.83,3.92C212.21,181.34,209.05,195.05,213,211a15.89,15.89,0,0,1,.54,3.92c-.07,5.78-4.05,8.5-9.39,6.36a67.89,67.89,0,0,1-7.63-3.7c-11.61-6.41-23.15-6.09-34.76,0C158.39,219.38,155.1,221.41,151.68,222ZM137,162.69c15.88,13,20.7,29.52,15.76,50.31,18.21-11.42,35.32-11.23,53.23.09-5.75-21.13.13-37.2,16.34-50.79-21.42-1.2-35-11.64-43.09-31.27C171.16,150.68,157.81,161.39,137,162.69Z"/><path class="cls-1" d="M137,162.69c20.85-1.3,34.2-12,42.24-31.66,8.07,19.63,21.67,30.07,43.09,31.27C206.08,175.89,200.2,192,206,213.09c-17.91-11.32-35-11.51-53.23-.09C157.66,192.21,152.84,175.73,137,162.69Z"/></g></g></svg>