<svg xmlns="http://www.w3.org/2000/svg" viewBox="0 0 479.76 431.69"><defs><style>.cls-1{fill:#fff;}</style></defs><title>data-breif</title><g id="Layer_2" data-name="Layer 2"><g id="Layer_1-2" data-name="Layer 1"><path class="cls-1" d="M128.1,80c0-8.44-.12-16.24,0-24,.48-26.71,17.71-48.26,43.71-54.39A64.47,64.47,0,0,1,186.18.1q54-.18,108-.06c33,.06,57.33,24.34,57.57,57.46,0,7.29,0,14.59,0,22.52h5.73c24.67,0,49.33-.13,74,.06,22.73.17,41.27,14.69,46.67,36.45a57.4,57.4,0,0,1,1.54,13.33c.14,25,.09,50,.06,75A64.48,64.48,0,0,1,466,245.18a12.67,12.67,0,0,0-2.16,7.25c-.13,43.33,0,86.66-.13,130-.06,23.5-14.29,42.07-36.49,47.66a55.4,55.4,0,0,1-13.34,1.54q-174.22.12-348.44.05c-28.37,0-49.21-20.79-49.31-49.25-.15-43.33,0-86.66-.15-130a14.62,14.62,0,0,0-2.78-8c-8.33-11.38-13-24-13-38.07-.16-26-.24-52,0-78,.26-27.52,21.07-48.08,48.73-48.29,24-.18,48,0,72,0ZM304.22,269.57c8.54-.86,16.7-1.35,24.75-2.55,32.54-4.83,65.14-9.4,97.55-15,22.54-3.91,37.51-23,37.56-45.78.06-25.83,0-51.66,0-77.49,0-19.19-13.82-33-33.06-33q-191.22,0-382.44,0c-18.93,0-32.81,13.86-32.84,32.75q-.06,39.24,0,78.49c.06,21.49,15.11,41.15,36.3,44.84,34.71,6,69.62,10.89,104.47,16.07,6.33.94,12.78,1,19.6,1.54,0-2.49-.08-4.3,0-6.1.65-12.68,10.46-23,23.14-23.12,27-.31,54-.27,81,0,11.43.1,20.19,7.73,22.69,18.91C303.66,262.25,303.75,265.58,304.22,269.57Zm143.87-8.52c-23.25,9.51-47.5,11.83-71.37,15.5-24.09,3.7-48.38,6.08-73,9.08,0,3.08.05,6.22,0,9.36-.29,14.26-10.45,24.57-24.73,24.65q-39.23.19-78.46,0c-13.94-.07-24.17-10.48-24.43-24.42-.06-3.28,0-6.57,0-10.09-8.31-.81-16.08-1.34-23.79-2.37-25.53-3.42-51.1-6.65-76.53-10.7-14.8-2.36-29.91-4-44-11.47v5.82q0,57.72,0,115.45c0,20.9,13.39,34.18,34.4,34.18q173.93,0,347.85,0c20.66,0,34.08-13.39,34.09-34q0-58,0-115.95Zm-207.65-5.36c-13.15,0-26.3-.05-39.45,0-6.27,0-9.17,2.92-9.22,9.15q-.12,15,0,30c0,6.18,3,9.18,9.2,9.19q39,.08,77.9,0c6.21,0,9.18-3,9.22-9.17.06-9.82,0-19.64,0-29.46,0-6.84-2.82-9.67-9.69-9.69C265.74,255.65,253.09,255.69,240.44,255.69ZM336.09,79.77c0-8.43,0-16.25,0-24.07a39.82,39.82,0,0,0-39.51-40q-56.73-.23-113.46,0C165.5,15.77,149,27.81,145.41,45c-2.3,11.2-1.6,23-2.25,34.71h16.93c0-7.43,0-14.55,0-21.68,0-15.74,10.22-26,25.91-26q53.48,0,107,0c16.83,0,26.78,9.92,26.78,26.63v21.1Zm-32,0c0-7.37,0-14.49,0-21.6,0-7.84-2.66-10.48-10.46-10.49H237.14q-26,0-52,0c-5.4,0-9.1,2.54-9.27,7-.3,8.27-.08,16.55-.08,25.06Z"/></g></g></svg>