<svg xmlns="http://www.w3.org/2000/svg" viewBox="0 0 446.93 414.9"><defs><style>.cls-1{fill:#fff;}</style></defs><title>data-works</title><g id="Layer_2" data-name="Layer 2"><g id="Layer_1-2" data-name="Layer 1"><path class="cls-1" d="M219.17,16.05c-9.36.28-17.69,4.53-26.46.5-1.69-.78-3.93-.52-5.91-.52q-73,0-146,0C26.26,16,16,26.25,16,40.83q0,143,0,286C16,341.1,26.46,352,40.08,352S64,341,64,326.66q0-87.75,0-175.5C64,124.44,80.54,108,107.4,108q143,0,286,0c24.39,0,42.61,18.17,42.62,42.48q0,52,0,104v5.16c-5.18-5.46-9.85-10.5-14.67-15.4-1.68-1.7-1.32-3.64-1.32-5.58q0-44.5,0-89c0-15.25-10.37-25.62-25.73-25.63q-145,0-290,0C90.43,124,80,134.44,80,148.37q0,83.74,0,167.5c0,12.53.47,25-8.78,36.14h6.41q85.76,0,171.5-.1c3.91,0,6,.82,7.07,4.86,1,3.76,3,7.27,4.7,11.25H191.58q-74.51,0-149,0C16.82,368,0,351.28,0,325.54q0-142,0-284C0,17.24,17.25,0,41.51,0Q113.77,0,186,0C199.29,0,210.12,5,219.17,16.05Z"/><path class="cls-1" d="M352.48,414.9c-53.1-.35-94.56-42.06-95-94-.42-53.61,42.66-96,95.82-95.77,51.13.2,93.87,43.87,93.59,95.63C446.65,372.24,403.63,415.14,352.48,414.9ZM273.71,320c.21,44.29,35.16,78.46,80,78.24,42.09-.2,76.71-35.78,76.57-78.7a78.3,78.3,0,1,0-156.6.46Z"/><path class="cls-1" d="M385.72,100c-1.33,0-2.68-.09-4,0-2.41.21-3.45-.55-3.78-3.22-2.18-17.66-4.72-35.28-6.88-52.94-1.68-13.7-11.53-21.86-25.19-20.1C310.4,28.35,275,33.07,239.5,37.67q-52.21,6.77-104.43,13.41c-15.34,2-26,10.93-25.9,22.94.06,6.43,1.39,12.87,2.36,19.28,1,6.71,1.12,6.7-5.43,6.71-9.55,0-9.46,0-11.26-9.69-1.5-8-3.33-16-1.36-24.19,3.61-15,17.69-27.92,33.36-30,33.28-4.51,66.6-8.74,99.9-13.14,26.54-3.5,53.06-7.11,79.6-10.61,13.35-1.77,26.7-3.68,40.1-5,19.55-2,36.81,11.91,39.61,31.52,2.65,18.6,5.1,37.23,7.8,55.82.57,3.95-.05,6.14-4.64,5.39a21.37,21.37,0,0,0-3.49,0Z"/><path class="cls-1" d="M407.29,290.46l-5.41-5.09a4.21,4.21,0,0,0-5.95.19l-43.75,46.49a4.21,4.21,0,0,1-5.95.19L322.18,309.6a4.21,4.21,0,0,0-5.95.18l-5.09,5.41a4.21,4.21,0,0,0,.18,5.95l27.12,25.52h0l8.48,8a4.21,4.21,0,0,0,5.95-.18l8-8.48h0l46.63-49.56A4.21,4.21,0,0,0,407.29,290.46Z"/></g></g></svg>