<svg xmlns="http://www.w3.org/2000/svg" viewBox="0 0 49.77 45.7"><defs><style>.cls-1{fill:#fff;}</style></defs><title>interesan</title><g id="Layer_2" data-name="Layer 2"><g id="Layer_1-2" data-name="Layer 1"><path class="cls-1" d="M15.23,23.41h5.92C21.52,15.6,21.9,7.82,22.28,0H14C14.44,7.82,14.83,15.59,15.23,23.41Z"/><path class="cls-1" d="M18.18,26a4.54,4.54,0,0,0-4.67,4.71,4.55,4.55,0,0,0,4.71,4.75,4.49,4.49,0,0,0,4.58-4.65A4.51,4.51,0,0,0,18.18,26Z"/><path class="cls-1" d="M45.1,8.38H26.9V13H45.1V28.59H35a2.33,2.33,0,0,0-2.33,2.34V41h-28V13H9.25V8.38H4.67A4.67,4.67,0,0,0,0,13V41A4.67,4.67,0,0,0,4.67,45.7H36.94a4.72,4.72,0,0,0,3.31-1.37l8.15-8.15a4.67,4.67,0,0,0,1.37-3.3V13A4.68,4.68,0,0,0,45.1,8.38ZM37.32,40.66v-7.4h7.4Z"/></g></g></svg>