<svg xmlns="http://www.w3.org/2000/svg" viewBox="0 0 309.61 210.47"><defs><style>.cls-1{fill:#010101;}</style></defs><title>Asset 23</title><g id="Layer_2" data-name="Layer 2"><g id="Layer_1-2" data-name="Layer 1"><g id="Capa_2" data-name="Capa 2"><g id="Isolation_Mode" data-name="Isolation Mode"><path class="cls-1" d="M13,118.2H216.17l-69.84,70a13,13,0,0,0-.08,18.43l.08.08a13,13,0,0,0,18.37,0l92.13-92.26h0l1.69-2a3.69,3.69,0,0,0,0-1,5.15,5.15,0,0,0,.65-1.17,5.7,5.7,0,0,0,0-1.43v-1a16.12,16.12,0,0,0,0-2.6h0a17.11,17.11,0,0,0,0-2.48v-2.47a12.28,12.28,0,0,0-.65-1.31V98a8.51,8.51,0,0,0-1.69-2L164.7,3.79a13,13,0,0,0-18.45,18.43l.08.07,69.84,69.85H13a13,13,0,0,0,0,26.06Z"/></g></g><g id="Capa_2-2" data-name="Capa 2"><rect class="cls-1" x="283.55" y="18.23" width="26.06" height="174.01" rx="13.03"/></g></g></g></svg>