<svg xmlns="http://www.w3.org/2000/svg" viewBox="0 0 49.62 37.21"><defs><style>.cls-1{fill:#7bcff4;}</style></defs><title>nuevos</title><g id="Layer_2" data-name="Layer 2"><g id="Layer_1-2" data-name="Layer 1"><path class="cls-1" d="M40.12,35.84l8.13-8.13a4.65,4.65,0,0,0,1.37-3.28V4.65A4.66,4.66,0,0,0,45,0H4.65A4.65,4.65,0,0,0,0,4.65V32.56a4.65,4.65,0,0,0,4.65,4.65H36.83A4.67,4.67,0,0,0,40.12,35.84Zm-2.91-3.66V24.8h7.37ZM4.65,4.65H45v15.5H34.88a2.32,2.32,0,0,0-2.32,2.33V32.56H4.65Z"/></g></g></svg>