<svg xmlns="http://www.w3.org/2000/svg" viewBox="0 0 51.37 41.95"><defs><style>.cls-1{fill:#fff;}</style></defs><title>proceso</title><g id="Layer_2" data-name="Layer 2"><g id="Layer_1-2" data-name="Layer 1"><path class="cls-1" d="M24,20q-2.45-2.46-4.91-4.91l-.58-.58-1.21-1.18-1-1,.62-.51a2.33,2.33,0,0,0,.23-.19l1.05-1.05,5.76-5.76a2.78,2.78,0,0,0,.42-3.61,2.75,2.75,0,0,0-2-1.22A2.91,2.91,0,0,0,20,.88C18.43,2.42,16.87,4,15.32,5.54L13.11,7.75,12.85,8l-.49.45-1.08-1.1L9.65,5.72,8.33,4.39Q6.5,2.55,4.64.73A2.61,2.61,0,0,0,2.82,0,2.91,2.91,0,0,0,1.39.39a2.82,2.82,0,0,0-1.33,3,4,4,0,0,0,1.35,2L6.35,10.3l2.13,2.13-.82.8c-.33.31-.64.61-.94.92l-.91.9C4.16,16.7,2.51,18.34.87,20a2.79,2.79,0,0,0,1.49,4.78,2.9,2.9,0,0,0,2.47-.87c1.54-1.52,3.08-3.06,4.61-4.59l2.24-2.25.26-.24.46-.43.45.42.22.21,1.28,1.28L20,23.9a2.79,2.79,0,0,0,4.6-.76A2.75,2.75,0,0,0,24,20Z"/><path class="cls-1" d="M46.75,5.11H31V9.72H46.75V25.07h-10a2.3,2.3,0,0,0-2.31,2.3v10H6.85V32.16H2.24v5.18A4.61,4.61,0,0,0,6.85,42H38.7A4.67,4.67,0,0,0,42,40.6l8-8.05a4.61,4.61,0,0,0,1.36-3.25V9.72A4.63,4.63,0,0,0,46.75,5.11ZM39.08,37v-7.3h7.3Z"/></g></g></svg>