<svg xmlns="http://www.w3.org/2000/svg" viewBox="0 0 480 432.12"><title>razon-sms</title><g id="Layer_2" data-name="Layer 2"><g id="Layer_1-2" data-name="Layer 1"><path d="M0,80.12C3.31,69.58,5.14,58.26,10.19,48.64,26.46,17.69,52.73.71,87.82.37c67-.66,133.94-.25,200.91-.17,41.17,0,82.16,30.52,92.51,68.94a79.58,79.58,0,0,1,2.6,19.19c.33,19.49-.2,39,.19,58.48.63,32.17-14.1,56.1-39.37,74.32-18.08,13-38.41,19.25-60.83,19-25.15-.27-50.31,0-75.46-.14a10.25,10.25,0,0,0-8.6,3.67q-36,40.17-72.33,80.12c-2.72,3-5.62,5.37-10,3.76s-5.71-5.22-5.44-9.61c0-.66,0-1.33,0-2V240.08c-7.09,0-13.7,0-20.32,0-23,.1-44.15-5.42-62.45-19.86C13.44,207.73,3.83,191.52.93,171.45A25,25,0,0,0,0,168.12ZM128,299.25c1.92-2,3-3.13,4.11-4.31q29.7-32.79,59.32-65.63a14.32,14.32,0,0,1,11.7-5.23c28.15.19,56.31.07,84.47.09A82.22,82.22,0,0,0,330,213c24.49-14.39,38.4-35.19,38.11-64.43-.21-20.49,0-41-.06-61.48A58.32,58.32,0,0,0,360.42,58c-16.1-28.13-41.19-41.53-72.95-41.75-66.64-.45-133.29-.17-199.94-.12C46.94,16.12,16,47,16,87.53c-.05,24.5-.1,49,.06,73.48a66.36,66.36,0,0,0,1.64,14.33c6.09,26.57,27.81,45.2,56.63,47.67,14.4,1.24,28.94.87,43.41,1.15,7.47.14,10.23,2.79,10.24,10.24q0,29.49,0,59Z"/><path d="M389,432.12c-20.15-20.06-40.35-40.06-60.37-60.25A12,12,0,0,0,319,368c-13,.23-26,.14-39,.07-29.53-.16-53.1-21.8-55.87-51.24-.1-1-.12-2-.13-3,0-5.84,3-9.56,7.79-9.64s7.94,3.52,8.11,9.36c.69,23.85,15.83,38.56,39.78,38.61,15.16,0,30.32.12,45.48-.06a14.16,14.16,0,0,1,11,4.74c15.06,15.32,30.3,30.48,45.47,45.68.47.47,1,.85,2.12,1.78.11-2.07.26-3.61.26-5.15,0-12.33,0-24.66,0-37,0-7.13,2.86-9.86,10-10,12.46-.27,25.08.47,37.36-1.22,18.46-2.55,32.27-18.85,32.6-37.52.3-16.79.64-33.72-1.14-50.36-2-18.4-16.8-30.21-35.46-30.95-7.92-.31-11.81-3.29-11.31-8.65s5-7.91,12.65-7.15c25.87,2.56,45.7,20.94,50.33,46.61a10.75,10.75,0,0,0,.93,2.2v53a8.83,8.83,0,0,0-.84,1.76c-6.56,29.34-30.1,48.22-60.1,48.2H400c0,17.77-.14,34.88.09,52,.07,5-.83,9.1-5,12.07Z"/></g></g></svg>