<svg xmlns="http://www.w3.org/2000/svg" viewBox="0 0 491.32 475.97"><defs><style>.cls-1{fill:#1d1d1b;}</style></defs><title>reazon-user</title><g id="Layer_2" data-name="Layer 2"><g id="Layer_1-2" data-name="Layer 1"><path class="cls-1" d="M373.9,241.12a117.4,117.4,0,0,0-96.79,51L248.26,275V234.81a116.88,116.88,0,0,0,76.94-31.33,7.11,7.11,0,0,0,1.85-1.69,117.43,117.43,0,1,0-163,0,7.27,7.27,0,0,0,1.85,1.69,117,117,0,0,0,74.31,31.24V275l-26.73,16.16A117.35,117.35,0,1,0,36,442.91a7.06,7.06,0,0,0,1.85,1.68,116.71,116.71,0,0,0,159.25,0,7.06,7.06,0,0,0,1.85-1.68,117.07,117.07,0,0,0,19-145l26.36-15.94,28.52,17a117,117,0,0,0,19.62,144,7.06,7.06,0,0,0,1.85,1.68,116.71,116.71,0,0,0,159.25,0,7.06,7.06,0,0,0,1.85-1.68A117.29,117.29,0,0,0,373.9,241.12ZM117.42,461.29a102.2,102.2,0,0,1-68.19-26.11c2.2-26.91,30.74-46.82,68.19-46.82s66,19.91,68.2,46.82A102.2,102.2,0,0,1,117.42,461.29ZM78.54,334.87a38.89,38.89,0,1,1,38.88,38.81A38.89,38.89,0,0,1,78.54,334.87ZM198,422.16c-6.36-20.53-24.53-36.6-49.2-44a53.56,53.56,0,1,0-62.66,0c-24.66,7.4-42.83,23.47-49.2,44a102.75,102.75,0,1,1,161.06,0ZM165.05,181a102.74,102.74,0,1,1,161.06,0c-6.37-20.53-24.54-36.6-49.2-44a53.56,53.56,0,1,0-62.66,0C189.59,144.44,171.41,160.51,165.05,181Zm80.53-48.48a38.81,38.81,0,1,1,38.88-38.81A38.89,38.89,0,0,1,245.58,132.56Zm0,14.68c37.45,0,66,19.91,68.19,46.82a102.11,102.11,0,0,1-136.39,0C179.59,167.15,208.12,147.24,245.58,147.24ZM373.9,461.29a102.2,102.2,0,0,1-68.2-26.11c2.21-26.91,30.74-46.82,68.2-46.82s66,19.91,68.19,46.82A102.2,102.2,0,0,1,373.9,461.29ZM335,334.87a38.89,38.89,0,1,1,38.89,38.81A38.89,38.89,0,0,1,335,334.87Zm119.42,87.29c-6.37-20.53-24.54-36.6-49.21-44a53.56,53.56,0,1,0-62.65,0c-24.67,7.4-42.84,23.47-49.2,44a102.74,102.74,0,1,1,161.06,0Z"/></g></g></svg>