<svg xmlns="http://www.w3.org/2000/svg" viewBox="0 0 512 390.79"><title>reazon-find</title><g id="Layer_2" data-name="Layer 2"><g id="Layer_1-2" data-name="Layer 1"><path d="M512,365.24c-3.72,10-12.26,16-19.56,22.78-5.12,4.78-15.56,3.07-21.55-2.78q-21.28-20.78-42.06-42.06c-7-7.22-6.37-16.6.85-26.86l-23.22-23.17a111.15,111.15,0,0,1-57.55,26.07c0,4.12,0,7.93,0,11.74-.11,10.7-6.68,17.15-17.71,17.17q-40.74.08-81.48,0c-76.31,0-152.62-.11-228.94.13-9.38,0-16.47-2.42-20.78-11v-326C3.74,2.69,10.29,0,19.5,0q155.2.33,310.41.16c13.7,0,19,5.29,19,19v87.75c41.73,7.22,72.1,29.38,86.7,69.36,14.49,39.68,6.4,76.22-19.93,108.29l22.78,22.79c2.08-1.06,5-3,8.21-4.08,6.79-2.24,12.86-.38,17.86,4.58,13.83,13.73,27.69,27.45,41.28,41.42,2.66,2.75,4.16,6.63,6.19,10ZM431.29,212.81A96.14,96.14,0,0,0,239,212.73c-.13,53.08,43.57,96.55,96.65,96.42C388.17,309,431.36,265.51,431.29,212.81ZM36.19,318.69H311.8a9.55,9.55,0,0,0-4-2.31c-8.14-3.27-16.24-6.66-24.45-9.78-3-1.15-6.25-2.35-9.38-2.35q-100.24-.21-200.48-.1H66.9c-1.6-10.61-1.6-10.61,7.93-10.61H264.27c-4.47-5-8.59-8.87-11.84-13.4-2.77-3.86-5.69-5.08-10.49-5.06-58.82.22-117.65.14-176.48.14H60.4V264.77H241.5c-2-4.79-4.24-8.91-5.51-13.29s-3.61-5.28-7.9-5.27q-81,.22-162,.1H60.37V235.88H231c-.81-5.48-1.53-10.37-2.32-15.74H190v-67.2h5.64c15.67,0,31.33,0,47,0,1.75,0,4.16,0,5.12-1.1,4.4-4.84,8.39-10,12.72-15.36H36.19ZM10.49,83.43C10.41,85,10.32,86,10.32,87q0,122,0,244c0,6.13,1.49,7.39,8.36,7.39H329.61c1.17,0,2.34,0,3.5,0,3.22-.05,5-1.75,5.12-4.9.14-4.27,0-8.55,0-13l-15.37-.87V330H26.11V125.54h9.33q116.48,0,233-.12c3.56,0,7.27-1.58,10.66-3,8.55-3.59,16.67-8.52,25.49-11.06,10.74-3.09,22-4.29,33.44-6.37V83.43ZM338,73c.11-2.09.26-3.55.26-5q0-25,0-50c0-6.27-1.38-7.63-7.63-7.63H18.8c-7.07,0-8.49,1.4-8.5,8.43,0,16,.22,32-.12,48-.1,5.09,1.29,6.37,6.36,6.36q157.94-.24,315.87-.12ZM501.5,363c-.94-1.68-1.56-3.67-2.86-5q-20.53-21.1-41.27-42c-3-3-6.56-3.38-9.77-.4-3.9,3.62-7.57,7.49-11.2,11.37-2.48,2.66-2.91,5.83-.27,8.48q21.45,21.6,43.14,42.94c2.7,2.66,6.2,2.84,9.05.31,4-3.52,7.65-7.4,11.27-11.29C500.52,366.37,500.76,364.73,501.5,363ZM240.82,163.55H200.28v45.57h28.57A111.79,111.79,0,0,1,240.82,163.55Z"/><path d="M60.28,219.7V152.39h96.3V219.7Zm85-10.39V163.59H70.73v45.72Z"/><path d="M276.59,57.2h-34V23.65h34ZM266,47.05V34h-12.7V47.05Z"/><path d="M317.26,57.29H283.4V23.54h33.86ZM306.85,47V34H294V47Z"/><path d="M235.81,23.5V57.17H202.12V23.5ZM225.69,47.07c0-3.86.19-7.16-.11-10.41-.1-1.08-1.38-2.85-2.25-2.93-3.68-.33-7.4-.14-11-.14V47.07Z"/></g></g></svg>