<svg xmlns="http://www.w3.org/2000/svg" viewBox="0 0 121.13 121.13"><defs><style>.cls-1{fill:#598eca;}.cls-1,.cls-2{fill-rule:evenodd;}.cls-2{fill:#fff;}</style></defs><title>social-twitter</title><g id="Layer_2" data-name="Layer 2"><g id="Layer_1-2" data-name="Layer 1"><path class="cls-1" d="M0,0H121.13V121.13H0Z"/><path class="cls-2" d="M71.39,29.19A16.25,16.25,0,0,0,60.45,45.53l.17,2.78L57.81,48a45.62,45.62,0,0,1-26.7-13.16L27.4,31.12l-.95,2.72a16.38,16.38,0,0,0,3.48,16.79c2.24,2.39,1.74,2.73-2.13,1.31-1.35-.46-2.53-.8-2.64-.63-.39.4.95,5.56,2,7.61a18.18,18.18,0,0,0,7.69,7.26l2.75,1.3-3.26.06c-3.14,0-3.25,0-2.91,1.25,1.12,3.68,5.55,7.6,10.49,9.3l3.48,1.19-3,1.81a31.51,31.51,0,0,1-15,4.2c-2.53.06-4.6.29-4.6.46,0,.56,6.84,3.74,10.83,5a47.33,47.33,0,0,0,36.8-4.2c7.58-4.48,15.15-13.39,18.69-22,1.91-4.59,3.81-13,3.81-17,0-2.61.17-2.95,3.31-6.07a37,37,0,0,0,3.93-4.36c.56-1.08.5-1.08-2.36-.12-4.76,1.7-5.44,1.48-3.08-1.07,1.74-1.82,3.82-5.11,3.82-6.08,0-.16-.85.11-1.8.63a30.8,30.8,0,0,1-4.94,1.92l-3,1L86,31.46A22.59,22.59,0,0,0,81.21,29,19.16,19.16,0,0,0,71.39,29.19Z"/></g></g></svg>