<svg xmlns="http://www.w3.org/2000/svg" viewBox="0 0 121.13 121.13"><defs><style>.cls-1{fill:#fff;}.cls-1,.cls-3,.cls-4,.cls-5,.cls-6{fill-rule:evenodd;}.cls-2{fill:none;}.cls-3{fill:#f9bc15;}.cls-4{fill:#ea4535;}.cls-5{fill:#36a852;}.cls-6{fill:#557ebf;}</style></defs><title>social-google</title><g id="Layer_2" data-name="Layer 2"><g id="Layer_1-2" data-name="Layer 1"><path class="cls-1" d="M0,0H121.13V121.13H0Z"/><g id="_1_stroke" data-name="1 stroke"><g id="Google"><rect class="cls-2" x="13.36" y="10.02" width="101.1" height="101.1"/><path class="cls-3" d="M35.15,60.56a29.69,29.69,0,0,1,1.52-9.38l-17-13a50.91,50.91,0,0,0,0,44.77l17-13a29.78,29.78,0,0,1-1.5-9.35"/><path class="cls-4" d="M65.06,30.7A29.29,29.29,0,0,1,83.7,37.36L98.42,22.65A50.6,50.6,0,0,0,19.63,38.17l17,13A29.84,29.84,0,0,1,65.06,30.7"/><path class="cls-5" d="M65.06,90.43A29.82,29.82,0,0,1,36.67,70l-17,13a50.47,50.47,0,0,0,45.43,28.15,48.21,48.21,0,0,0,33-12.6L81.87,86a31.26,31.26,0,0,1-16.81,4.42"/><path class="cls-6" d="M113.38,60.56a42,42,0,0,0-1.15-9.19H65.06V70.9H92.21A22.76,22.76,0,0,1,81.87,86L98,98.51c9.29-8.62,15.34-21.47,15.34-37.95"/></g></g></g></g></svg>