<svg xmlns="http://www.w3.org/2000/svg" viewBox="0 0 511.81 511.81"><title>Asset 19</title><g id="Layer_2" data-name="Layer 2"><g id="Layer_1-2" data-name="Layer 1"><path d="M0,255.86C0,115,115-.14,255.42,0A256.25,256.25,0,0,1,511.81,256.94c-.15,140.21-115.29,254.87-255.95,254.87C114.82,511.81,0,396.94,0,255.86ZM423.08,404.54c74-80.26,80.87-217.26-8.88-307.14C323.71,6.78,177.55,10,90.32,105.15,6.11,197,18.75,329.6,88.8,404.47c31-21.41,68.11-26.59,102.74-39.53-1.66,20.82-1.09,31.28,3.45,42.27,10.82,26.22,26.22,49.32,47.77,68.05,8,6.91,18.46,6.85,26.4-.07,20.44-17.85,35.26-39.75,46.2-64.42A64.69,64.69,0,0,0,321,384.14c0-6.25,0-12.49,0-19C355,378,392.2,383.08,423.08,404.54Z"/><path d="M156.74,210.75c-.66-16.1-2.16-31.71-1.78-47.28.86-35.53,18.87-60.38,51.3-73.43,40.54-16.31,80.47-14.44,117.65,10.22,21.32,14.13,31.84,35.17,32.75,60.38.6,16.53-.88,33.15-1.44,50,8.69,2.3,12.17,6.21,12.44,16.85a52.43,52.43,0,0,1-14.34,38.23,24.46,24.46,0,0,0-4.24,6c-8.85,18.73-18.88,36.7-33.12,52-16.38,17.61-36.11,28.2-60.64,28s-44.06-11.15-60.27-28.87c-13.63-14.91-23.36-32.29-32-50.37a33.22,33.22,0,0,0-5-7.26c-10.44-12.07-15.6-25.86-13.22-41.84C146.11,214.67,149.09,212.11,156.74,210.75Zm20.47,23h1c-2-3.81-3.59-8-6.2-11.3-1.82-2.33-6-5.52-7.47-4.83-2.83,1.3-6,4.94-6.39,7.93-1.4,11.57,2.14,21.92,10,30.77a54.81,54.81,0,0,1,6.77,9.64c7.75,13.93,14.59,28.42,23.06,41.89,26,41.31,89.79,41.18,115.57.14,8.64-13.75,15.66-28.52,23.47-42.8,1.34-2.45,2.46-5.32,4.49-7.07,7.24-6.25,10.63-14.43,12.05-23.45a25.33,25.33,0,0,0-.77-11.75c-2.53-7.3-8.13-7.9-12.49-1.55-2.69,3.9-4.67,8.29-6.66,11.92,2.29-14.21,4.68-29,7-43.53-15.47-1.74-29.56-2.9-43.51-5-30-4.47-57-15.76-78.94-37.29-4.31-4.24-8.06-4.58-13.22-2.88-14.78,4.87-24,15.61-31,28.76a16.34,16.34,0,0,0-2.1,8.47C173.48,199.13,175.41,216.42,177.21,233.72Z"/><path d="M247,399c-5.09-5.6-9.63-10.65-14.25-15.62-2.47-2.67-1.85-4.75.5-7.24,5.11-5.41,10.52-9.55,18.63-8.24a28.12,28.12,0,0,0,9,0c8.55-1.4,13.79,3.58,18.48,9.38a5.21,5.21,0,0,1-.05,5c-4.49,5.33-9.36,10.34-14.78,16.19,1.82,4.48,4.09,10.13,6.41,15.76,2.6,6.3,4.82,12.8,8,18.8,2.66,5.05,1.7,8.78-2.12,12.3-6,5.51-12,11-18.16,16.31-1,.88-3.8,1.3-4.61.6-7.14-6.17-14.06-12.6-21-19-2.51-2.35-2.36-5-1-8.16,4.65-10.66,9-21.44,13.48-32.18C246.25,401.19,246.86,399.48,247,399Z"/></g></g></svg>