<svg xmlns="http://www.w3.org/2000/svg" viewBox="0 0 511.53 511.53"><title>Asset 18</title><g id="Layer_2" data-name="Layer 2"><g id="Layer_1-2" data-name="Layer 1"><path d="M255.76,511.53A255.77,255.77,0,0,1,74.91,74.91,255.77,255.77,0,0,1,436.62,436.62,254.09,254.09,0,0,1,255.76,511.53Zm0-476.53C134,35,35,134,35,255.77s99,220.76,220.76,220.76,220.77-99,220.77-220.76S377.5,35,255.76,35Z"/><path d="M329,287.73l18.48,18.52c6-2.46,7.15-2.21,12,2.67,8.34,8.35,69.47,67.28,77.81,75.63,4.28,4.29,4.27,7.64-.05,12q-17.65,17.69-35.34,35.34c-4.43,4.42-7.68,4.39-12.16-.09-8.63-8.62-70-67.83-78.66-76.46-3.81-3.82-4.14-6.15-1.66-10.57L290.72,326c-64.1,41.59-143.15,20.3-181.89-32.87C70,239.72,75.61,165,122.41,118.86c47.51-46.83,121.87-52,174.52-12.74C350.59,146.12,369.86,224.77,329,287.73ZM116.47,216.27c2.37,57.55,48.33,100.52,105.72,97.86,54.84-2.54,98-49,95.16-105.6a100.52,100.52,0,0,0-200.88,7.74Z"/><path d="M281,275.17c-32.17,34.67-91.32,38.15-127.9.41,1.47-.85,2.82-1.77,4.28-2.43,7.21-3.24,14.45-6.4,21.68-9.59,1.45-.64,2.89-1.28,4.32-2,11.82-5.71,13.43-11.71,12.33-24.45a11.62,11.62,0,0,0-3-6.27,55.54,55.54,0,0,1-9.29-15.09,20,20,0,0,0-4.1-5.68c-3.11-3.14-5.21-6.58-5.54-11.13a11.13,11.13,0,0,1,4.87-10.47,6.18,6.18,0,0,0,2.3-4.6,87.26,87.26,0,0,0-2.43-15.19c-3.77-13.82,3.66-22.39,11.71-27.51,14.49-9.22,36-9.16,48.65.07a19.6,19.6,0,0,1,2.93,2.51c2.49,2.69,4.59,5.34,8.95,5.73,4,.36,5.48,4.34,5.23,7.91-.48,7-1.61,13.91-2.5,20.86-.22,1.77-.91,3.56-.73,5.26s.78,3.94,1.92,4.53c8.07,4.17,6.49,15.72.39,21.56-2.07,2-3.53,4.63-5.12,7.07-2.95,4.53-5.9,9.07-8.62,13.73-1.36,2.32-2.8,4.85-3.16,7.43a39.21,39.21,0,0,0,.22,10.65,14,14,0,0,0,7.82,10.62c5.35,2.76,10.93,5.05,16.4,7.57Z"/></g></g></svg>