<svg xmlns="http://www.w3.org/2000/svg" viewBox="0 0 511.53 511.53"><title>Asset 20</title><g id="Layer_2" data-name="Layer 2"><g id="Layer_1-2" data-name="Layer 1"><path d="M404.13,180.49v85.59L278.59,285.67c.83-5.72,1.11-10.85,2.41-15.7,1.44-5.43,3.83-10.61,5.76-15.92,1.46-4,.24-6.07-3.9-6.09q-27.17-.12-54.31,0c-4.19,0-5.43,2-4,6.05,1.91,5.31,4.31,10.49,5.77,15.91,1.3,4.86,1.6,10,2.45,15.76L107.22,266.08V180.49Z"/><path d="M118.3,370v-94.7l113.75,17.74c0,6,0,11.64,0,17.29,0,4.44,1.26,5.72,5.7,5.73q17.93.06,35.84,0c4.42,0,5.68-1.31,5.7-5.74,0-5.42,0-10.84.05-16.26a4.89,4.89,0,0,1,.37-1.08L393,275.32V370Z"/><path d="M118.17,390.32V378H392.93v12.36Z"/><path d="M320.31,172.63H303.36c-4.21-30.94-29.07-44.42-48.84-43.62-24.51,1-42.88,18-46.35,43.54h-17c1.52-20.05,10-36.38,26.25-48,22.14-15.81,45.9-17.42,69.78-4.32C307.5,131.4,318,149.34,320.31,172.63Z"/><path d="M271.71,308.52H239.77V277.78h31.94Z"/><path d="M255.76,511.53A255.77,255.77,0,0,1,74.91,74.91,255.77,255.77,0,0,1,436.62,436.62,254.09,254.09,0,0,1,255.76,511.53Zm0-476.53C134,35,35,134,35,255.77s99,220.76,220.76,220.76,220.77-99,220.77-220.76S377.5,35,255.76,35Z"/></g></g></svg>