<svg xmlns="http://www.w3.org/2000/svg" viewBox="0 0 50.87 48.64"><defs><style>.cls-1{fill:#fff;}</style></defs><title>terminados</title><g id="Layer_2" data-name="Layer 2"><g id="Layer_1-2" data-name="Layer 1"><path class="cls-1" d="M46.22,11.54H38.39v4.64h7.83V31.63h-10A2.31,2.31,0,0,0,33.86,34V44H6V38.78H1.4V44A4.64,4.64,0,0,0,6,48.64H38.12a4.67,4.67,0,0,0,3.28-1.37l8.11-8.1a4.68,4.68,0,0,0,1.36-3.28V16.18A4.66,4.66,0,0,0,46.22,11.54ZM38.49,43.62V36.27h7.35Z"/><path class="cls-1" d="M21.67,5.16c-3.16,0-6-2.07-10.44-2.07a14.34,14.34,0,0,0-5.2,1,3.16,3.16,0,0,0,.14-1.33,3.09,3.09,0,1,0-4.62,3V32a1,1,0,0,0,1,1h1a1,1,0,0,0,1-1V26.6a17.68,17.68,0,0,1,8.24-1.84c3.17,0,6,2.06,10.44,2.06a15,15,0,0,0,8.29-2.58A3.09,3.09,0,0,0,33,21.65V6.19A3.09,3.09,0,0,0,28.7,3.34,18.46,18.46,0,0,1,21.67,5.16Zm8.24,16.5a12.06,12.06,0,0,1-6.59,2.06c-3.86,0-6.57-2.06-10.44-2.06a22.16,22.16,0,0,0-8.24,1.55v-15a12.17,12.17,0,0,1,6.59-2.06c3.87,0,6.58,2.06,10.44,2.06a22.1,22.1,0,0,0,8.24-2.06Z"/></g></g></svg>