<svg xmlns="http://www.w3.org/2000/svg" viewBox="0 0 283.11 280.36"><defs><style>.cls-1{fill:#231f20;}</style></defs><title>user-edit</title><g id="Layer_2" data-name="Layer 2"><g id="Layer_1-2" data-name="Layer 1"><rect class="cls-1" x="110.66" y="66.99" width="143.81" height="68.78" transform="translate(-18.22 158.77) rotate(-45)"/><path class="cls-1" d="M275.65,22.05,260.05,6.46a22,22,0,0,0-31.18,0L217.93,17.39,266.56,66,277.5,55.08C286.11,46.48,284.26,30.66,275.65,22.05Z"/><polygon class="cls-1" points="100.04 137.99 100.04 186.57 145.34 186.57 100.04 137.99"/><path class="cls-1" d="M181.32,249.1H31.26V99h78.5L141,67.78H21.88C11.52,67.78,0,73.05,0,83.41V258.47c0,10.36,11.52,21.89,21.88,21.89H197c10.35,0,15.63-11.53,15.63-21.89V146.53L181.32,177.8Z"/></g></g></svg>