<svg xmlns="http://www.w3.org/2000/svg" viewBox="0 0 471.29 114.39"><defs><style>.cls-1{fill:#2787c4;}</style></defs><title>Asset 3</title><g id="Layer_2" data-name="Layer 2"><g id="Layer_1-2" data-name="Layer 1"><path class="cls-1" d="M72.42,88.11q-12.81,0-20.27-8.43T44.69,57.75q0-14.58,7.81-22.81T73.05,26.7q12.53,0,19.78,8.18t7.27,22.64q0,13.66-7.41,22.13T72.42,88.11Zm.4-56.6q-10.35,0-16.49,7T50.18,57.86q0,11.51,6,18.47t16.41,7q10.59,0,16.3-6.86t5.72-19q0-12.52-5.69-19.22T72.82,31.51Z"/><path class="cls-1" d="M120.11,76.27h-.23V86.68h0a5.25,5.25,0,0,1-5.26-5.26V0h0a5.27,5.27,0,0,1,5.26,5.26V40.19h.23a23.13,23.13,0,0,1,9-10A24.57,24.57,0,0,1,142,26.7q11.15,0,17.41,7.69t6.26,20.9q0,16-8.57,25.28a24,24,0,0,1-17.86,7.54Q126.32,88,120.11,76.27Zm-.23-21.78v7.38A22.17,22.17,0,0,0,125.42,77,18.49,18.49,0,0,0,140,83.31q9,0,14.58-7.69t5.6-20.22q0-11-5.15-17.43a16.64,16.64,0,0,0-13.72-6.46q-10.23,0-15.84,6.85A24.78,24.78,0,0,0,119.88,54.49Z"/><path class="cls-1" d="M193,78.22h-.23v8.46h0a13.26,13.26,0,0,1-13.26-13.26V0h0a13.26,13.26,0,0,1,13.26,13.26V38.42H193q6.81-11.66,19.9-11.66,11.09,0,17.35,7.86t6.26,21.07q0,14.7-7,23.53t-19.21,8.83A18.87,18.87,0,0,1,193,78.22ZM192.61,55v7.26a15.46,15.46,0,0,0,4.09,10.86,14.43,14.43,0,0,0,22-1.28q4.2-5.75,4.21-16,0-8.64-3.92-13.53a12.9,12.9,0,0,0-10.61-4.88,14.29,14.29,0,0,0-11.41,5A18.67,18.67,0,0,0,192.61,55Z"/><path class="cls-1" d="M280.72,86.68h0V77.53h-.23q-6.06,10.53-17.78,10.52-8.64,0-13.52-4.69T244.3,71q0-16.59,19.09-19.33l17.39-2.46q0-12.51-11.9-12.52A28.29,28.29,0,0,0,250,43.85V32.25a41.18,41.18,0,0,1,21.39-5.49q22.19,0,22.18,21.84V73.82A12.86,12.86,0,0,1,280.72,86.68Zm.06-28.76-12.3,1.72c-3.81.49-6.68,1.42-8.6,2.77S257,66.13,257,69.53a7.83,7.83,0,0,0,2.66,6.09A10.31,10.31,0,0,0,266.77,78a13.13,13.13,0,0,0,10-4.26,15.1,15.1,0,0,0,4-10.72Z"/><path class="cls-1" d="M363.05,82q0,32.25-32.42,32.25-3.09,0-6-.28a15.67,15.67,0,0,1-14-15.67h0q9.6,5.49,18.24,5.49,20.86,0,20.87-20.53v-6.4h-.23q-6.57,11.2-19.78,11.2-10.69,0-17.24-7.8t-6.55-21q0-14.92,7-23.73t19.33-8.8q11.61,0,17.21,9.49h.23V28.13h0A13.27,13.27,0,0,1,363.05,41.4ZM349.9,59.87V52.26a14.88,14.88,0,0,0-4.09-10.55,13.35,13.35,0,0,0-10.2-4.37,14,14,0,0,0-11.81,5.57q-4.26,5.58-4.26,15.58,0,8.64,4.09,13.81a13.12,13.12,0,0,0,10.83,5.17,14,14,0,0,0,11.15-4.94C348.48,69.23,349.9,65,349.9,59.87Z"/><path class="cls-1" d="M29,85.24q0,29.15-20.69,29.15c-.55,0-1.11,0-1.67-.08A7.44,7.44,0,0,1,0,106.9H0a17.59,17.59,0,0,0,8.92,2.69q14.85,0,14.85-23.38V28.38h0A5.25,5.25,0,0,1,29,33.63Z"/><path class="cls-1" d="M449.47,33.2a5.2,5.2,0,1,0-5.91-5.92c-5.33-4.19-11.08-6.36-13.73-6.36-.45,2.63-1.29,5.92-1.29,5.92s30,8.4,20.4,38.74a.3.3,0,0,0,.54.24C458,51.76,455.29,40.78,449.47,33.2Z"/><path class="cls-1" d="M462.71,58.14a5.2,5.2,0,1,0,.62-8.34c-.31-6.77-2.44-12.54-4.17-14.54-2.28,1.37-5.32,2.89-5.32,2.89s13.24,28.17-16,40.75a.3.3,0,0,0,.17.58C454.21,76.7,460.77,67.5,462.71,58.14Z"/><path class="cls-1" d="M442,88.61a5.2,5.2,0,1,0,8-2.52c6.18-2.8,10.75-6.91,12-9.26-2.12-1.61-4.66-3.87-4.66-3.87s-21.26,22.75-43.78.27a.3.3,0,0,0-.47.37C421.61,87.6,432.58,90.29,442,88.61Z"/><path class="cls-1" d="M407.43,82.94a5.2,5.2,0,1,0,5.37,6.41c4.94,4.64,10.49,7.29,13.13,7.52.68-2.57,1.8-5.78,1.8-5.78s-29.14-11-17-40.36a.3.3,0,0,0-.52-.29C400.58,63.72,402.29,74.89,407.43,82.94Z"/><path class="cls-1" d="M398.92,50.9a5.2,5.2,0,1,0-3.47,7.61c-2.05,6.46-2.06,12.61-1.13,15.08,2.61-.49,6-.86,6-.86s-2.66-31,29.11-32.7a.3.3,0,0,0,0-.6C413.31,36.44,404,42.79,398.92,50.9Z"/><path class="cls-1" d="M420.94,28.62a5.2,5.2,0,1,0-8.29,1.12c-6.56,1.7-11.77,5-13.37,7.07,1.81,2,3.92,4.61,3.92,4.61S428,22.66,446.38,48.65a.3.3,0,0,0,.52-.28C440.84,33.11,430.49,28.58,420.94,28.62Z"/></g></g></svg>