<svg xmlns="http://www.w3.org/2000/svg" viewBox="0 0 452.95 113.98"><defs><style>.cls-1{fill:#fff;}</style></defs><title>Recurso 8</title><g id="Capa_2" data-name="Capa 2"><g id="Layer_1" data-name="Layer 1"><path class="cls-1" d="M61.35,81.73q-10.85,0-17.17-7.14T37.86,56q0-12.34,6.61-19.32t17.41-7q10.62,0,16.76,6.93t6.15,19.18q0,11.58-6.27,18.75T61.35,81.73Zm.34-47.95q-8.77,0-14,5.91T42.51,56.11q0,9.74,5.09,15.65t13.9,5.91q9,0,13.8-5.82t4.84-16.13q0-10.61-4.81-16.27T61.69,33.78Z"/><path class="cls-1" d="M101.75,71.71h-.2v8.81h0a4.45,4.45,0,0,1-4.45-4.45v-69h0a4.46,4.46,0,0,1,4.45,4.46V41.14h.2a19.63,19.63,0,0,1,7.63-8.45,20.86,20.86,0,0,1,10.92-3q9.44,0,14.75,6.52t5.3,17.7q0,13.53-7.26,21.42A20.31,20.31,0,0,1,118,81.73Q107,81.63,101.75,71.71Zm-.2-18.46V59.5a18.78,18.78,0,0,0,4.7,12.81,15.64,15.64,0,0,0,12.35,5.36A14.63,14.63,0,0,0,131,71.15q4.76-6.51,4.75-17.12,0-9.3-4.36-14.78a14.12,14.12,0,0,0-11.62-5.47q-8.67,0-13.42,5.81A20.92,20.92,0,0,0,101.55,53.25Z"/><path class="cls-1" d="M163.45,73.35h-.19v7.17h0A11.23,11.23,0,0,1,152,69.29V7.09h0a11.24,11.24,0,0,1,11.24,11.24V39.64h.19q5.78-9.87,16.86-9.88,9.39,0,14.7,6.66t5.31,17.85q0,12.45-6,19.93t-16.28,7.48A16,16,0,0,1,163.45,73.35Zm-.29-19.71v6.15a13.1,13.1,0,0,0,3.47,9.2,12.22,12.22,0,0,0,18.6-1.09q3.56-4.86,3.56-13.58,0-7.32-3.32-11.46a10.91,10.91,0,0,0-9-4.14A12.11,12.11,0,0,0,166.82,43,15.81,15.81,0,0,0,163.16,53.64Z"/><path class="cls-1" d="M237.81,80.52h0V72.77h-.2q-5.13,8.91-15.06,8.91-7.32,0-11.46-4A13.88,13.88,0,0,1,207,67.2q0-14,16.18-16.37l14.72-2.08q0-10.61-10.07-10.61a23.94,23.94,0,0,0-16,6.1V34.41a34.89,34.89,0,0,1,18.12-4.65q18.79,0,18.79,18.5V69.63A10.9,10.9,0,0,1,237.81,80.52Zm0-24.36-10.41,1.45A16.58,16.58,0,0,0,220.15,60q-2.44,1.73-2.45,6A6.61,6.61,0,0,0,220,71.15a8.72,8.72,0,0,0,6,2,11.13,11.13,0,0,0,8.5-3.61,12.79,12.79,0,0,0,3.36-9.08Z"/><path class="cls-1" d="M307.55,76.55q0,27.32-27.46,27.32c-1.75,0-3.44-.08-5.06-.24a13.26,13.26,0,0,1-11.84-13.27h0Q271.32,95,278.64,95q17.67,0,17.68-17.38V72.19h-.2q-5.56,9.5-16.76,9.49a18.13,18.13,0,0,1-14.6-6.61q-5.55-6.6-5.54-17.75,0-12.65,5.95-20.1t16.37-7.46q9.84,0,14.58,8h.2V30.92h0a11.23,11.23,0,0,1,11.23,11.24ZM296.41,57.81V51.36A12.61,12.61,0,0,0,293,42.43a11.35,11.35,0,0,0-8.64-3.71,11.91,11.91,0,0,0-10,4.72q-3.6,4.73-3.61,13.2,0,7.32,3.47,11.7a11.12,11.12,0,0,0,9.18,4.38,11.89,11.89,0,0,0,9.44-4.19A15.77,15.77,0,0,0,296.41,57.81Z"/><path class="cls-1" d="M24.59,79.3Q24.59,104,7.07,104c-.47,0-1,0-1.42-.06A6.3,6.3,0,0,1,0,97.65H0a14.85,14.85,0,0,0,7.55,2.28q12.59,0,12.59-19.8v-49h0a4.46,4.46,0,0,1,4.45,4.46Z"/><path class="cls-1" d="M421.49,18.42a7.71,7.71,0,0,0,6.39-7.71A7.48,7.48,0,0,0,413,9.54C405.3,3.25,397,0,393.19,0c-.66,3.94-1.86,8.88-1.86,8.88s43.21,12.6,29.4,58.13a.43.43,0,0,0,.78.37C433.73,46.27,429.88,29.79,421.49,18.42Z"/><path class="cls-1" d="M440.57,55.85a7.27,7.27,0,0,0,9.78,0,8,8,0,0,0,.78-11,7.3,7.3,0,0,0-9.67-1.5c-.44-10.16-3.5-18.82-6-21.83-3.3,2.06-7.67,4.34-7.67,4.34S446.88,68.13,404.75,87a.45.45,0,0,0,.25.86C428.33,83.7,437.79,69.9,440.57,55.85Z"/><path class="cls-1" d="M410.71,101.57a7.94,7.94,0,0,0,3.63,9.46,7.36,7.36,0,0,0,10.11-3.34,8,8,0,0,0-2.25-9.89c8.9-4.21,15.49-10.38,17.25-13.9-3.06-2.42-6.71-5.81-6.71-5.81s-30.64,34.13-63.11.41a.44.44,0,0,0-.67.55C381.33,100.06,397.15,104.09,410.71,101.57Z"/><path class="cls-1" d="M360.9,93.07a7.83,7.83,0,0,0-.19,15.55,7.54,7.54,0,0,0,7.93-5.94c7.12,7,15.12,10.95,18.92,11.3,1-3.87,2.59-8.68,2.59-8.68s-42-16.46-24.45-60.57a.44.44,0,0,0-.75-.44C351,64.22,353.48,81,360.9,93.07Z"/><path class="cls-1" d="M348.63,45a7.38,7.38,0,0,0-9.18-3.52,7.91,7.91,0,0,0-4.39,10,7.45,7.45,0,0,0,8.57,4.89c-3,9.69-3,18.92-1.64,22.64,3.78-.74,8.64-1.3,8.64-1.3s-3.83-46.55,42-49.07a.45.45,0,0,0,.06-.89C369.38,23.28,355.91,32.81,348.63,45Z"/><path class="cls-1" d="M380.36,11.56a8,8,0,0,0-2-10,7.31,7.31,0,0,0-10.51,1.49,8,8,0,0,0,.59,10.15c-9.46,2.55-17,7.45-19.28,10.61,2.62,2.93,5.66,6.92,5.66,6.92S390.6,2.6,417,41.61a.43.43,0,0,0,.75-.42C409.06,18.28,394.14,11.49,380.36,11.56Z"/></g></g></svg>