<svg xmlns="http://www.w3.org/2000/svg" viewBox="0 0 772.93 194.49"><defs><style>.cls-1{fill:#2787c4;}.cls-2{fill:#932877;}.cls-3{fill:#18457c;}.cls-4{fill:#36c3ee;}.cls-5{fill:#b3be35;}.cls-6{fill:#332c6d;}</style></defs><title>Asset 2</title><g id="Capa_2" data-name="Capa 2"><g id="Layer_1" data-name="Layer 1"><path class="cls-1" d="M104.69,139.47q-18.51,0-29.3-12.19T64.61,95.58q0-21.08,11.28-33T105.6,50.7q18.11,0,28.6,11.82t10.5,32.73q0,19.77-10.71,32T104.69,139.47Zm.58-81.82q-15,0-23.85,10.08t-8.88,28q0,16.62,8.68,26.7t23.72,10.08q15.28,0,23.56-9.92t8.26-27.52q0-18.11-8.22-27.77T105.27,57.65Z"/><path class="cls-1" d="M173.63,122.36h-.34v15h0a7.61,7.61,0,0,1-7.6-7.61V12.1h0a7.61,7.61,0,0,1,7.6,7.61v50.5h.34a33.33,33.33,0,0,1,13-14.42,35.55,35.55,0,0,1,18.64-5.09q16.13,0,25.17,11.12T239.5,92q0,23.09-12.39,36.55a34.67,34.67,0,0,1-25.82,10.89Q182.62,139.28,173.63,122.36Zm-.34-31.49v10.67a32.05,32.05,0,0,0,8,21.86q8,9.14,21.08,9.13t21.08-11.12q8.1-11.11,8.1-29.22,0-15.85-7.44-25.2t-19.84-9.34q-14.81,0-22.89,9.91A35.71,35.71,0,0,0,173.29,90.87Z"/><path class="cls-1" d="M278.93,125.17h-.34v12.24h0a19.18,19.18,0,0,1-19.17-19.18V12.1h0a19.18,19.18,0,0,1,19.17,19.18V67.65h.34q9.82-16.86,28.76-16.86,16,0,25.09,11.36t9.05,30.46q0,21.24-10.17,34t-27.77,12.77Q287.36,139.39,278.93,125.17Zm-.5-33.63V102a22.42,22.42,0,0,0,5.91,15.71,19.48,19.48,0,0,0,15,6.44q10.67,0,16.74-8.3t6.08-23.19q0-12.48-5.67-19.55t-15.33-7.06q-10.25,0-16.49,7.27T278.43,91.54Z"/><path class="cls-1" d="M405.8,137.41h0V124.18h-.33q-8.76,15.21-25.7,15.21-12.48,0-19.55-6.78t-7.07-17.93q0-24,27.61-27.94l25.12-3.55q0-18.1-17.19-18.1-15.12,0-27.27,10.41V58.72q13.38-7.94,30.91-7.93,32.07,0,32.07,31.57v36.45A18.6,18.6,0,0,1,405.8,137.41Zm.08-41.58-17.77,2.48q-8.26,1.08-12.44,4t-4.17,10.29a11.26,11.26,0,0,0,3.84,8.8q3.86,3.44,10.29,3.43a19,19,0,0,0,14.51-6.15q5.75-6.16,5.74-15.5Z"/><path class="cls-1" d="M524.82,130.63q0,46.62-46.86,46.62-4.48,0-8.64-.41a22.63,22.63,0,0,1-20.21-22.65h0q13.89,7.94,26.37,7.93,30.16,0,30.17-29.67v-9.26h-.33q-9.51,16.2-28.6,16.2-15.45,0-24.92-11.28t-9.46-30.29q0-21.58,10.16-34.3t27.94-12.73q16.77,0,24.88,13.72h.33V52.77h0a19.17,19.17,0,0,1,19.17,19.17Zm-19-32v-11A21.55,21.55,0,0,0,499.9,72.4a19.33,19.33,0,0,0-14.75-6.32q-10.9,0-17.07,8.06t-6.16,22.52q0,12.48,5.91,20a19,19,0,0,0,15.67,7.48A20.3,20.3,0,0,0,499.61,117Q505.82,109.8,505.81,98.64Z"/><path class="cls-1" d="M42,135.33q0,42.13-29.91,42.13c-.8,0-1.61,0-2.42-.12A10.73,10.73,0,0,1,0,166.64H0a25.38,25.38,0,0,0,12.89,3.88q21.48,0,21.48-33.79V53.12h0a7.6,7.6,0,0,1,7.6,7.6Z"/><path class="cls-2" d="M719.25,31.44a13.17,13.17,0,0,0,10.9-13.16,12.76,12.76,0,0,0-25.43-2C691.62,5.55,677.46,0,671,0c-1.12,6.72-3.18,15.15-3.18,15.15s73.74,21.5,50.18,99.2a.74.74,0,0,0,1.34.63C740.13,79,733.56,50.84,719.25,31.44Z"/><path class="cls-3" d="M751.81,95.31a12.42,12.42,0,0,0,16.69,0,13.7,13.7,0,0,0,1.32-18.79A12.43,12.43,0,0,0,753.33,74c-.76-17.34-6-32.12-10.23-37.25C737.48,40.22,730,44.1,730,44.1s32.56,72.16-39.32,104.38a.77.77,0,0,0,.42,1.46C730.92,142.82,747.06,119.27,751.81,95.31Z"/><path class="cls-1" d="M700.86,173.33a13.54,13.54,0,0,0,6.19,16.13,12.55,12.55,0,0,0,17.25-5.69,13.65,13.65,0,0,0-3.84-16.89c15.19-7.17,26.44-17.69,29.43-23.71-5.21-4.13-11.45-9.91-11.45-9.91s-52.29,58.24-107.69.69a.75.75,0,0,0-1.14,1C650.72,170.75,677.72,177.62,700.86,173.33Z"/><path class="cls-4" d="M615.85,158.82a13,13,0,0,0-12,12.12,13.18,13.18,0,0,0,11.64,14.42,12.85,12.85,0,0,0,13.53-10.14c12.16,11.88,25.8,18.68,32.28,19.27,1.68-6.6,4.43-14.8,4.43-14.8S594.1,151.61,624.05,76.33a.74.74,0,0,0-1.28-.74C599,109.59,603.2,138.19,615.85,158.82Z"/><path class="cls-5" d="M594.91,76.76a12.56,12.56,0,0,0-15.66-6,13.48,13.48,0,0,0-7.49,17.14,12.7,12.7,0,0,0,14.62,8.34c-5,16.54-5.08,32.29-2.79,38.64,6.44-1.27,14.74-2.22,14.74-2.22s-6.54-79.44,71.61-83.74A.77.77,0,0,0,670,47.4C630.32,39.72,607.34,56,594.91,76.76Z"/><path class="cls-6" d="M649.07,19.72a13.68,13.68,0,0,0-3.46-17,12.46,12.46,0,0,0-17.92,2.53,13.7,13.7,0,0,0,1,17.32c-16.14,4.36-29,12.73-32.9,18.12,4.46,5,9.65,11.8,9.65,11.8S666.54,4.43,711.65,71a.74.74,0,0,0,1.29-.73C698,31.19,672.57,19.61,649.07,19.72Z"/></g></g></svg>