<svg xmlns="http://www.w3.org/2000/svg" viewBox="0 0 681.29 165.36"><defs><style>.cls-1{fill:#2787c4;}.cls-2{fill:#932877;}.cls-3{fill:#18457c;}.cls-4{fill:#36c3ee;}.cls-5{fill:#b3be35;}.cls-6{fill:#332c6d;}</style></defs><title>Asset 2</title><g id="Layer_2" data-name="Layer 2"><g id="Layer_1-2" data-name="Layer 1"><path class="cls-1" d="M104.69,127.37q-18.51,0-29.3-12.19T64.61,83.48q0-21.07,11.28-33T105.6,38.6q18.11,0,28.6,11.82t10.5,32.73q0,19.75-10.71,32T104.69,127.37Zm.58-81.83q-15,0-23.85,10.09t-8.88,28q0,16.6,8.68,26.69t23.72,10.09q15.28,0,23.56-9.92T136.76,83q0-18.1-8.22-27.78T105.27,45.54Z"/><path class="cls-1" d="M173.63,110.26h-.34v15h0a7.6,7.6,0,0,1-7.6-7.6V0h0a7.6,7.6,0,0,1,7.6,7.6V58.1h.34a33.39,33.39,0,0,1,13-14.42,35.63,35.63,0,0,1,18.64-5.08q16.13,0,25.17,11.12t9.05,30.21q0,23.07-12.39,36.54a34.64,34.64,0,0,1-25.82,10.9Q182.62,127.17,173.63,110.26Zm-.34-31.49V89.43a32,32,0,0,0,8,21.86q8,9.13,21.08,9.14t21.08-11.12q8.1-11.11,8.1-29.22,0-15.87-7.44-25.21t-19.84-9.34q-14.81,0-22.89,9.92A35.67,35.67,0,0,0,173.29,78.77Z"/><path class="cls-1" d="M278.93,113.07h-.34V125.3h0a19.17,19.17,0,0,1-19.17-19.17V0h0a19.18,19.18,0,0,1,19.17,19.18V55.54h.34q9.82-16.86,28.76-16.86,16,0,25.09,11.37t9.05,30.46q0,21.24-10.17,34t-27.77,12.77Q287.36,127.29,278.93,113.07Zm-.5-33.64v10.5a22.39,22.39,0,0,0,5.91,15.7,19.46,19.46,0,0,0,15,6.45q10.67,0,16.74-8.31t6.08-23.18q0-12.48-5.67-19.55T301.16,54q-10.25,0-16.49,7.28T278.43,79.43Z"/><path class="cls-1" d="M405.8,125.3h0V112.08h-.33q-8.76,15.21-25.7,15.21-12.48,0-19.55-6.78t-7.07-17.94q0-24,27.61-27.93l25.12-3.56q0-18.09-17.19-18.1-15.12,0-27.27,10.42V46.62q13.38-7.93,30.91-7.94,32.07,0,32.07,31.58v36.45A18.59,18.59,0,0,1,405.8,125.3Zm.08-41.57-17.77,2.48q-8.26,1.07-12.44,4t-4.17,10.29a11.27,11.27,0,0,0,3.84,8.8q3.86,3.43,10.29,3.43a19,19,0,0,0,14.51-6.16q5.75-6.15,5.74-15.5Z"/><path class="cls-1" d="M524.82,118.53q0,46.6-46.86,46.61-4.48,0-8.64-.4a22.65,22.65,0,0,1-20.21-22.66h0Q463,150,475.48,150q30.16,0,30.17-29.68v-9.25h-.33q-9.51,16.2-28.6,16.2-15.45,0-24.92-11.29t-9.46-30.29q0-21.57,10.16-34.3t27.94-12.73q16.77,0,24.88,13.72h.33V40.67h0a19.17,19.17,0,0,1,19.17,19.17Zm-19-32v-11A21.51,21.51,0,0,0,499.9,60.3,19.34,19.34,0,0,0,485.15,54q-10.9,0-17.07,8.06t-6.16,22.52q0,12.49,5.91,20A19,19,0,0,0,483.5,112a20.33,20.33,0,0,0,16.11-7.15Q505.82,97.7,505.81,86.54Z"/><path class="cls-1" d="M42,123.22q0,42.14-29.91,42.14c-.8,0-1.61,0-2.42-.12A10.74,10.74,0,0,1,0,154.54H0a25.48,25.48,0,0,0,12.89,3.88q21.48,0,21.48-33.79V41h0a7.6,7.6,0,0,1,7.6,7.6Z"/><path class="cls-2" d="M649.74,48a7.51,7.51,0,1,0-8.54-8.55c-7.7-6.06-16-9.19-19.84-9.19-.66,3.79-1.87,8.55-1.87,8.55s43.34,12.14,29.49,56a.43.43,0,0,0,.78.35C662,74.82,658.15,59,649.74,48Z"/><path class="cls-3" d="M668.88,84.05a7.51,7.51,0,1,0,.89-12c-.44-9.79-3.51-18.14-6-21-3.3,2-7.69,4.17-7.69,4.17S675.2,95.88,633,114.06a.44.44,0,0,0,.24.83C656.6,110.87,666.09,97.58,668.88,84.05Z"/><path class="cls-1" d="M638.93,128.09a7.51,7.51,0,1,0,11.53-3.64c8.92-4,15.53-10,17.29-13.38-3.06-2.34-6.73-5.6-6.73-5.6s-30.73,32.88-63.29.39a.43.43,0,0,0-.67.54C609.47,126.64,625.33,130.51,638.93,128.09Z"/><path class="cls-4" d="M589,119.9a7.51,7.51,0,1,0,7.77,9.26c7.14,6.7,15.16,10.54,19,10.88,1-3.73,2.6-8.36,2.6-8.36s-42.12-15.85-24.52-58.35a.43.43,0,0,0-.75-.41C579.07,92.11,581.54,108.25,589,119.9Z"/><path class="cls-5" d="M576.67,73.58a7.51,7.51,0,1,0-5,11c-3,9.33-3,18.22-1.64,21.8,3.78-.71,8.66-1.25,8.66-1.25s-3.84-44.84,42.08-47.27a.43.43,0,0,0,.06-.85C597.48,52.67,584,61.86,576.67,73.58Z"/><path class="cls-6" d="M608.5,41.38a7.52,7.52,0,1,0-12,1.61c-9.49,2.46-17,7.18-19.33,10.23,2.62,2.82,5.67,6.66,5.67,6.66s35.91-27.13,62.42,10.45a.43.43,0,0,0,.76-.41C637.28,47.86,622.31,41.32,608.5,41.38Z"/></g></g></svg>